[Header]
FileType HTR
DataType HTRS
FileVersion 1
NumSegments 64
NumFrames 4
DataFrameRate 30
EulerRotationOrder ZYX
CalibrationUnits mm
RotationUnits Degrees
GlobalAxisofGravity Y
BoneLengthAxis Y
ScaleFactor 1.0
[SegmentNames&Hierarchy]
Hips	GLOBAL
Spine	Hips
Spine1	Spine
Spine2	Spine1
Neck	Spine2
Head	Neck
LeftEye	Head
RightEye	Head
LeftShoulder	Spine2
LeftArm	LeftShoulder
LeftForeArm	LeftArm
LeftHand	LeftForeArm
LeftHandThumb1	LeftHand
LeftHandThumb2	LeftHandThumb1
LeftHandThumb3	LeftHandThumb2
LeftHandThumb4	LeftHandThumb3
LeftHandIndex1	LeftHand
LeftHandIndex2	LeftHandIndex1
LeftHandIndex3	LeftHandIndex2
LeftHandIndex4	LeftHandIndex3
LeftHandMiddle1	LeftHand
LeftHandMiddle2	LeftHandMiddle1
LeftHandMiddle3	LeftHandMiddle2
LeftHandMiddle4	LeftHandMiddle3
LeftHandRing1	LeftHand
LeftHandRing2	LeftHandRing1
LeftHandRing3	LeftHandRing2
LeftHandRing4	LeftHandRing3
LeftHandPinky1	LeftHand
LeftHandPinky2	LeftHandPinky1
LeftHandPinky3	LeftHandPinky2
LeftHandPinky4	LeftHandPinky3
RightShoulder	Spine2
RightArm	RightShoulder
RightForeArm	RightArm
RightHand	RightForeArm
RightHandPinky1	RightHand
RightHandPinky2	RightHandPinky1
RightHandPinky3	RightHandPinky2
RightHandPinky4	RightHandPinky3
RightHandRing1	RightHand
RightHandRing2	RightHandRing1
RightHandRing3	RightHandRing2
RightHandRing4	RightHandRing3
RightHandMiddle1	RightHand
RightHandMiddle2	RightHandMiddle1
RightHandMiddle3	RightHandMiddle2
RightHandMiddle4	RightHandMiddle3
RightHandIndex1	RightHand
RightHandIndex2	RightHandIndex1
RightHandIndex3	RightHandIndex2
RightHandIndex4	RightHandIndex3
RightHandThumb1	RightHand
RightHandThumb2	RightHandThumb1
RightHandThumb3	RightHandThumb2
RightHandThumb4	RightHandThumb3
LeftUpLeg	Hips
LeftLeg	LeftUpLeg
LeftFoot	LeftLeg
LeftToeBase	LeftFoot
RightUpLeg	Hips
RightLeg	RightUpLeg
RightFoot	RightLeg
RightToeBase	RightFoot
[BasePosition]
Hips	0	0	0	0	0	0	1
Spine	0	0	0	0	0	0	1
Spine1	0	0	0	0	0	0	1
Spine2	0	0	0	0	0	0	1
Neck	0	0	0	0	0	0	1
Head	0	0	0	0	0	0	1
LeftEye	0	0	0	0	0	0	1
RightEye	0	0	0	0	0	0	1
LeftShoulder	0	0	0	0	0	0	1
LeftArm	0	0	0	0	0	0	1
LeftForeArm	0	0	0	0	0	0	1
LeftHand	0	0	0	0	0	0	1
LeftHandThumb1	0	0	0	0	0	0	1
LeftHandThumb2	0	0	0	0	0	0	1
LeftHandThumb3	0	0	0	0	0	0	1
LeftHandThumb4	0	0	0	0	0	0	1
LeftHandIndex1	0	0	0	0	0	0	1
LeftHandIndex2	0	0	0	0	0	0	1
LeftHandIndex3	0	0	0	0	0	0	1
LeftHandIndex4	0	0	0	0	0	0	1
LeftHandMiddle1	0	0	0	0	0	0	1
LeftHandMiddle2	0	0	0	0	0	0	1
LeftHandMiddle3	0	0	0	0	0	0	1
LeftHandMiddle4	0	0	0	0	0	0	1
LeftHandRing1	0	0	0	0	0	0	1
LeftHandRing2	0	0	0	0	0	0	1
LeftHandRing3	0	0	0	0	0	0	1
LeftHandRing4	0	0	0	0	0	0	1
LeftHandPinky1	0	0	0	0	0	0	1
LeftHandPinky2	0	0	0	0	0	0	1
LeftHandPinky3	0	0	0	0	0	0	1
LeftHandPinky4	0	0	0	0	0	0	1
RightShoulder	0	0	0	0	0	0	1
RightArm	0	0	0	0	0	0	1
RightForeArm	0	0	0	0	0	0	1
RightHand	0	0	0	0	0	0	1
RightHandPinky1	0	0	0	0	0	0	1
RightHandPinky2	0	0	0	0	0	0	1
RightHandPinky3	0	0	0	0	0	0	1
RightHandPinky4	0	0	0	0	0	0	1
RightHandRing1	0	0	0	0	0	0	1
RightHandRing2	0	0	0	0	0	0	1
RightHandRing3	0	0	0	0	0	0	1
RightHandRing4	0	0	0	0	0	0	1
RightHandMiddle1	0	0	0	0	0	0	1
RightHandMiddle2	0	0	0	0	0	0	1
RightHandMiddle3	0	0	0	0	0	0	1
RightHandMiddle4	0	0	0	0	0	0	1
RightHandIndex1	0	0	0	0	0	0	1
RightHandIndex2	0	0	0	0	0	0	1
RightHandIndex3	0	0	0	0	0	0	1
RightHandIndex4	0	0	0	0	0	0	1
RightHandThumb1	0	0	0	0	0	0	1
RightHandThumb2	0	0	0	0	0	0	1
RightHandThumb3	0	0	0	0	0	0	1
RightHandThumb4	0	0	0	0	0	0	1
LeftUpLeg	0	0	0	0	0	0	1
LeftLeg	0	0	0	0	0	0	1
LeftFoot	0	0	0	0	0	0	1
LeftToeBase	0	0	0	0	0	0	1
RightUpLeg	0	0	0	0	0	0	1
RightLeg	0	0	0	0	0	0	1
RightFoot	0	0	0	0	0	0	1
RightToeBase	0	0	0	0	0	0	1
[Hips]
70	133.0846863	930.382019	-15.88934326	4.27101469	-20.70989609	4.842607975	1.0
71	130.4945068	915.2682495	-25.89700699	5.425858498	-19.53040314	2.472660303	1.0
72	121.1239548	913.336792	-28.84319305	5.956448555	-16.81725121	0.8448129296	1.0
73	104.5194244	927.956543	-27.84697342	6.438239098	-14.54449368	-0.4375669658	1.0
[Spine]
70	0	101.8159943	1.315000057	10.31815815	0.5026395917	-1.671334863	1.0
71	0	101.8159943	1.315000057	11.9502449	-0.3918460011	-1.004503489	1.0
72	0	101.8159943	1.315000057	12.856493	-1.029293299	-0.1799853444	1.0
73	0	101.8159943	1.315000057	12.86273289	-1.187436461	0.5104488134	1.0
[Spine1]
70	0	100.8349991	-10.00800037	2.995384693	0.1707497239	0.1775475889	1.0
71	0	100.8349991	-10.00800037	3.447546959	0.02991335839	0.4083056748	1.0
72	0	100.8349991	-10.00800037	3.908720016	-0.05757730454	0.8091114759	1.0
73	0	100.8349991	-10.00800037	4.243662834	-0.07295755297	1.099132657	1.0
[Spine2]
70	0	91	-13.73399925	2.994963169	0.1639100909	0.1826381385	1.0
71	0	91	-13.73399925	3.4474895	0.0352868326	0.4072578847	1.0
72	0	91	-13.73399925	3.908959866	-0.02820063569	0.802030623	1.0
73	0	91	-13.73399925	4.244954586	-0.02619616129	1.088923454	1.0
[Neck]
70	0	166.7169952	-25.16200066	2.20675683	4.061160564	-1.177254677	1.0
71	0	166.7169952	-25.16200066	0.1758114547	3.808550119	-0.6473231316	1.0
72	0	166.7169952	-25.16200066	-0.9331396222	3.338696241	-1.303891182	1.0
73	0	166.7169952	-25.16200066	-1.820250034	2.975361109	-1.936305881	1.0
[Head]
70	0	96.17900085	16.84999847	-33.0394783	16.6723175	-11.5530653	1.0
71	0	96.17900085	16.84999847	-35.61154938	16.01766586	-11.3036747	1.0
72	0	96.17900085	16.84999847	-36.52780914	14.00216293	-10.31005096	1.0
73	0	96.17900085	16.84999847	-36.15545654	12.49425316	-9.492030144	1.0
[LeftEye]
70	30.6760006	64.09500122	92.83599854	0	0	0	1.0
71	30.6760006	64.09500122	92.83599854	0	0	0	1.0
72	30.6760006	64.09500122	92.83599854	0	0	0	1.0
73	30.6760006	64.09500122	92.83599854	0	0	0	1.0
[RightEye]
70	-30.6760006	64.09500122	92.83499908	0	0	0	1.0
71	-30.6760006	64.09500122	92.83499908	0	0	0	1.0
72	-30.6760006	64.09500122	92.83499908	0	0	0	1.0
73	-30.6760006	64.09500122	92.83499908	0	0	0	1.0
[LeftShoulder]
70	45.70400238	109.4599991	-26.28000069	4.636210918	-28.74123192	-8.313464165	1.0
71	45.70400238	109.4599991	-26.28000069	4.760418892	-28.20834732	-8.942398071	1.0
72	45.70400238	109.4599991	-26.28000069	4.863996983	-27.74759865	-9.462608337	1.0
73	45.70400238	109.4599991	-26.28000069	4.825452805	-27.89041901	-9.279839516	1.0
[LeftArm]
70	105.923996	-5.24600029	-22.32099915	30.23114204	-35.85128403	-23.33416939	1.0
71	105.923996	-5.24600029	-22.32099915	20.30356598	-39.31911469	-19.93164444	1.0
72	105.923996	-5.24600029	-22.32099915	10.84005547	-46.40732574	-18.59080124	1.0
73	105.923996	-5.24600029	-22.32099915	2.080151796	-52.31991959	-18.94487953	1.0
[LeftForeArm]
70	278.414978	-0.0009999999311	0	-2.096009666e-06	-50.09087753	-0.0002070281043	1.0
71	278.414978	-0.0009999999311	0	2.073358019e-06	-50.3307457	-0.0001998152293	1.0
72	278.414978	-0.0009999999311	0	-2.959374342e-06	-46.91270447	-0.0002076416567	1.0
73	278.414978	-0.0009999999311	0	-2.189491397e-06	-43.48505402	-0.0002005339775	1.0
[LeftHand]
70	283.2879944	0	0	35.49891663	-13.37213802	-29.4541626	1.0
71	283.2879944	0	0	41.04996109	-2.722144365	-42.21121979	1.0
72	283.2879944	0	0	50.76625824	6.304370403	-46.20503235	1.0
73	283.2879944	0	0	59.05303574	15.7235384	-43.76089478	1.0
[LeftHandThumb1]
70	24.6609993	-15.75	26.8239994	-1.441467762	-8.319270134	8.653970718	1.0
71	24.6609993	-15.75	26.8239994	-1.441466093	-8.319266319	8.653958321	1.0
72	24.6609993	-15.75	26.8239994	-1.441467643	-8.319267273	8.653972626	1.0
73	24.6609993	-15.75	26.8239994	-1.441467404	-8.319265366	8.653960228	1.0
[LeftHandThumb2]
70	32.29800034	-18.64699936	18.64699936	6.693880081	35.79315186	-1.55123806	1.0
71	32.29800034	-18.64699936	18.64699936	6.693878651	35.79314804	-1.551255226	1.0
72	32.29800034	-18.64699936	18.64699936	6.693877697	35.7931366	-1.551219344	1.0
73	32.29800034	-18.64699936	18.64699936	6.693874359	35.79314423	-1.551216125	1.0
[LeftHandThumb3]
70	26.52600098	-15.31499958	15.31499958	-0.857984066	28.98579597	24.39994049	1.0
71	26.52600098	-15.31499958	15.31499958	-0.8579829931	28.98579025	24.39995193	1.0
72	26.52600098	-15.31499958	15.31499958	-0.8579857349	28.98578644	24.39994431	1.0
73	26.52600098	-15.31499958	15.31499958	-0.8579784632	28.98578072	24.39994621	1.0
[LeftHandThumb4]
70	19.54599953	-11.28499985	11.28499985	0	0	0	1.0
71	19.54599953	-11.28499985	11.28499985	0	0	0	1.0
72	19.54599953	-11.28499985	11.28499985	0	0	0	1.0
73	19.54599953	-11.28499985	11.28499985	0	0	0	1.0
[LeftHandIndex1]
70	91.09299469	-5.170999527	22.60099792	2.074710131	6.374518394	-51.86822128	1.0
71	91.09299469	-5.170999527	22.60099792	2.074710846	6.374522209	-51.8682518	1.0
72	91.09299469	-5.170999527	22.60099792	2.0747118	6.374519825	-51.86822128	1.0
73	91.09299469	-5.170999527	22.60099792	2.074712992	6.374522209	-51.86821747	1.0
[LeftHandIndex2]
70	36.76399994	0	0	-5.084234715	5.778058529	-82.67962646	1.0
71	36.76399994	0	0	-5.084237099	5.778056622	-82.67962646	1.0
72	36.76399994	0	0	-5.084236145	5.77805233	-82.67962646	1.0
73	36.76399994	0	0	-5.084235668	5.778054237	-82.67962646	1.0
[LeftHandIndex3]
70	28.83100128	0	0	-6.449682713	5.791760921	-96.16447449	1.0
71	28.83100128	0	0	-6.449676991	5.791757107	-96.16448975	1.0
72	28.83100128	0	0	-6.449683189	5.79175806	-96.16447449	1.0
73	28.83100128	0	0	-6.449682236	5.791757584	-96.16447449	1.0
[LeftHandIndex4]
70	23.92700005	0	0	0	0	0	1.0
71	23.92700005	0	0	0	0	0	1.0
72	23.92700005	0	0	0	0	0	1.0
73	23.92700005	0	0	0	0	0	1.0
[LeftHandMiddle1]
70	95.33399963	0	0	-6.494760513	5.27325964	-74.30394745	1.0
71	95.33399963	0	0	-6.494763374	5.273261547	-74.30394745	1.0
72	95.33399963	0	0	-6.494760036	5.27326107	-74.30393982	1.0
73	95.33399963	0	0	-6.494761467	5.273262024	-74.30393982	1.0
[LeftHandMiddle2]
70	36.98199844	0	0	-7.583497047	5.554388523	-107.5965805	1.0
71	36.98199844	0	0	-7.583498478	5.554387569	-107.596611	1.0
72	36.98199844	0	0	-7.583496094	5.554388046	-107.5965958	1.0
73	36.98199844	0	0	-7.583499908	5.554388046	-107.5965958	1.0
[LeftHandMiddle3]
70	29.50900078	0	0	-1.617077112	4.031615734	-43.6975975	1.0
71	29.50900078	0	0	-1.617077589	4.031619549	-43.69760895	1.0
72	29.50900078	0	0	-1.617077589	4.031617641	-43.69759369	1.0
73	29.50900078	0	0	-1.61707449	4.031620026	-43.69760132	1.0
[LeftHandMiddle4]
70	28.3390007	0	0	0	0	0	1.0
71	28.3390007	0	0	0	0	0	1.0
72	28.3390007	0	0	0	0	0	1.0
73	28.3390007	0	0	0	0	0	1.0
[LeftHandRing1]
70	91.04499817	-0.4390000105	-18.65100098	-8.449707031	1.972094774	-92.66125488	1.0
71	91.04499817	-0.4390000105	-18.65100098	-8.449709892	1.972098112	-92.66126251	1.0
72	91.04499817	-0.4390000105	-18.65100098	-8.449709892	1.97209394	-92.66127014	1.0
73	91.04499817	-0.4390000105	-18.65100098	-8.449708939	1.972096086	-92.66124725	1.0
[LeftHandRing2]
70	31.54000092	0	0	-5.443835735	5.81276083	-86.23970795	1.0
71	31.54000092	0	0	-5.443835735	5.812761307	-86.23968506	1.0
72	31.54000092	0	0	-5.443840504	5.812756538	-86.23976898	1.0
73	31.54000092	0	0	-5.443844795	5.812758446	-86.23975372	1.0
[LeftHandRing3]
70	29.37700081	0	0	-1.453047156	3.853060722	-41.31212616	1.0
71	29.37700081	0	0	-1.453050733	3.853059769	-41.31214905	1.0
72	29.37700081	0	0	-1.453045964	3.853060722	-41.3121109	1.0
73	29.37700081	0	0	-1.453043461	3.853062868	-41.31212997	1.0
[LeftHandRing4]
70	26.47500038	0	0	0	0	0	1.0
71	26.47500038	0	0	0	0	0	1.0
72	26.47500038	0	0	0	0	0	1.0
73	26.47500038	0	0	0	0	0	1.0
[LeftHandPinky1]
70	80.77799988	-4.887000084	-38.06099701	-16.68238831	2.778092623	-98.34423828	1.0
71	80.77799988	-4.887000084	-38.06099701	-16.6823864	2.778093815	-98.34425354	1.0
72	80.77799988	-4.887000084	-38.06099701	-16.6823864	2.7780931	-98.34423065	1.0
73	80.77799988	-4.887000084	-38.06099701	-16.68238831	2.778092384	-98.34424591	1.0
[LeftHandPinky2]
70	36	0	0	-2.200026274	4.562776566	-51.4656105	1.0
71	36	0	0	-2.200024843	4.562776089	-51.46560287	1.0
72	36	0	0	-2.200028419	4.562776566	-51.46559906	1.0
73	36	0	0	-2.20002532	4.56277895	-51.46560287	1.0
[LeftHandPinky3]
70	21.14200211	0	0	-2.346138716	4.675043583	-53.27986145	1.0
71	21.14200211	0	0	-2.346140862	4.675041676	-53.27987289	1.0
72	21.14200211	0	0	-2.346141577	4.67504406	-53.27985764	1.0
73	21.14200211	0	0	-2.346138	4.675042629	-53.27986908	1.0
[LeftHandPinky4]
70	19.75699997	0	0	0	0	0	1.0
71	19.75699997	0	0	0	0	0	1.0
72	19.75699997	0	0	0	0	0	1.0
73	19.75699997	0	0	0	0	0	1.0
[RightShoulder]
70	-45.70000076	109.4620056	-26.28000069	1.323496699	29.21203804	-3.5195539	1.0
71	-45.70000076	109.4620056	-26.28000069	1.065606236	29.21327972	-4.339650154	1.0
72	-45.70000076	109.4620056	-26.28000069	0.8568815589	29.21909332	-5.031781673	1.0
73	-45.70000076	109.4620056	-26.28000069	0.8827460408	29.19506836	-4.953081131	1.0
[RightArm]
70	-105.9280014	-5.248000145	-22.32099915	50.75080872	73.4960556	65.46372223	1.0
71	-105.9280014	-5.248000145	-22.32099915	30.01642418	75.01609039	43.09539032	1.0
72	-105.9280014	-5.248000145	-22.32099915	8.476660728	73.76683807	22.98138046	1.0
73	-105.9280014	-5.248000145	-22.32099915	-4.822914124	72.81175995	12.53632164	1.0
[RightForeArm]
70	-278.414978	0	0	2.889363031e-06	26.78088188	1.13256533e-06	1.0
71	-278.414978	0	0	2.117283429e-06	35.73138809	5.857978522e-06	1.0
72	-278.414978	0	0	-1.559871521e-06	38.15935516	-5.77362016e-06	1.0
73	-278.414978	0	0	-6.993117495e-06	34.8540802	-3.160671895e-06	1.0
[RightHand]
70	-283.2879944	0	0.0009999999311	22.8125782	-26.57666397	15.13301659	1.0
71	-283.2879944	0	0.0009999999311	19.83293533	-24.67507172	13.86533546	1.0
72	-283.2879944	0	0.0009999999311	15.21831036	-20.56431198	14.46613503	1.0
73	-283.2879944	0	0.0009999999311	11.94157314	-14.38415432	16.9089756	1.0
[RightHandPinky1]
70	-80.76699829	-4.885000229	-38.06000137	-15.18224239	-1.629485965	97.58633423	1.0
71	-80.76699829	-4.885000229	-38.06000137	-15.18223858	-1.629502892	97.5863266	1.0
72	-80.76699829	-4.885000229	-38.06000137	-15.18223095	-1.629489779	97.58634949	1.0
73	-80.76699829	-4.885000229	-38.06000137	-15.18223	-1.629495978	97.58634186	1.0
[RightHandPinky2]
70	-36	0	0.0009999999311	-1.7498281	-3.626914501	51.51878357	1.0
71	-36	0	0.0009999999311	-1.749816775	-3.626885653	51.51878357	1.0
72	-36	0	0.0009999999311	-1.74982667	-3.626893997	51.51876831	1.0
73	-36	0	0.0009999999311	-1.749824762	-3.626888514	51.51878738	1.0
[RightHandPinky3]
70	-21.14200211	0	0	-1.867241859	-3.71709466	53.33225632	1.0
71	-21.14200211	0	0	-1.867242813	-3.717097759	53.33224487	1.0
72	-21.14200211	0	0	-1.867236257	-3.717078686	53.33224487	1.0
73	-21.14200211	0	0	-1.867232084	-3.71708703	53.33225632	1.0
[RightHandPinky4]
70	-19.75699997	0	0	0	0	0	1.0
71	-19.75699997	0	0	0	0	0	1.0
72	-19.75699997	0	0	0	0	0	1.0
73	-19.75699997	0	0	0	0	0	1.0
[RightHandRing1]
70	-91.03599548	-0.4390000105	-18.65100098	-7.065032959	-0.7974068522	91.91008759	1.0
71	-91.03599548	-0.4390000105	-18.65100098	-7.065032005	-0.7974122763	91.91007996	1.0
72	-91.03599548	-0.4390000105	-18.65100098	-7.065027237	-0.7974073291	91.91008759	1.0
73	-91.03599548	-0.4390000105	-18.65100098	-7.065032959	-0.7974071503	91.91009521	1.0
[RightHandRing2]
70	-31.54000092	0	0	-4.327744961	-4.620625973	86.24687195	1.0
71	-31.54000092	0	0	-4.327749252	-4.620641708	86.24687958	1.0
72	-31.54000092	0	0	-4.327745914	-4.620632648	86.24688721	1.0
73	-31.54000092	0	0	-4.32773304	-4.620635986	86.24687195	1.0
[RightHandRing3]
70	-29.37700081	0	0	-1.156978965	-3.063931704	41.36634064	1.0
71	-29.37700081	0	0	-1.156974435	-3.063939095	41.36634064	1.0
72	-29.37700081	0	0	-1.156967402	-3.063941002	41.36632156	1.0
73	-29.37700081	0	0	-1.156959295	-3.063933611	41.36633682	1.0
[RightHandRing4]
70	-26.47500038	0	0	0	0	0	1.0
71	-26.47500038	0	0	0	0	0	1.0
72	-26.47500038	0	0	0	0	0	1.0
73	-26.47500038	0	0	0	0	0	1.0
[RightHandMiddle1]
70	-95.32500458	0	0	-5.490190029	-4.098494053	73.57289886	1.0
71	-95.32500458	0	0	-5.490193367	-4.098508835	73.57289886	1.0
72	-95.32500458	0	0	-5.490180492	-4.09849453	73.57290649	1.0
73	-95.32500458	0	0	-5.490185738	-4.098491669	73.57291412	1.0
[RightHandMiddle2]
70	-36.98199844	0	0	-6.026582718	-4.415489674	107.5651245	1.0
71	-36.98199844	0	0	-6.026566982	-4.415483475	107.5651169	1.0
72	-36.98199844	0	0	-6.026571751	-4.415487289	107.5651245	1.0
73	-36.98199844	0	0	-6.026576042	-4.415475845	107.5651321	1.0
[RightHandMiddle3]
70	-29.50900078	0	0	-1.287470102	-3.207873583	43.75223923	1.0
71	-29.50900078	0	0	-1.28746593	-3.207851171	43.75224304	1.0
72	-29.50900078	0	0	-1.287463069	-3.207862139	43.75223923	1.0
73	-29.50900078	0	0	-1.287477612	-3.207865238	43.75225067	1.0
[RightHandMiddle4]
70	-28.3390007	0	0.0009999999311	0	0	0	1.0
71	-28.3390007	0	0.0009999999311	0	0	0	1.0
72	-28.3390007	0	0.0009999999311	0	0	0	1.0
73	-28.3390007	0	0.0009999999311	0	0	0	1.0
[RightHandIndex1]
70	-91.08300018	-5.167999744	22.60099792	2.643063784	-5.360722065	51.18568039	1.0
71	-91.08300018	-5.167999744	22.60099792	2.643073559	-5.360713959	51.18567276	1.0
72	-91.08300018	-5.167999744	22.60099792	2.643070936	-5.360714912	51.18568039	1.0
73	-91.08300018	-5.167999744	22.60099792	2.643069029	-5.360721588	51.18568039	1.0
[RightHandIndex2]
70	-36.76399994	0	0	-4.042246819	-4.593092918	82.69343567	1.0
71	-36.76399994	0	0	-4.042247295	-4.593085289	82.69343567	1.0
72	-36.76399994	0	0	-4.042249203	-4.593076706	82.69343567	1.0
73	-36.76399994	0	0	-4.04224205	-4.593074799	82.69343567	1.0
[RightHandIndex3]
70	-28.83100128	0	0	-5.126294613	-4.603949547	96.15283966	1.0
71	-28.83100128	0	0	-5.126299858	-4.603969574	96.15283966	1.0
72	-28.83100128	0	0	-5.12629652	-4.603972435	96.15283203	1.0
73	-28.83100128	0	0	-5.126286983	-4.603960991	96.15284729	1.0
[RightHandIndex4]
70	-23.92700005	0	0	0	0	0	1.0
71	-23.92700005	0	0	0	0	0	1.0
72	-23.92700005	0	0	0	0	0	1.0
73	-23.92700005	0	0	0	0	0	1.0
[RightHandThumb1]
70	-24.64799881	-15.72700024	26.82600021	-2.388246775	10.16859818	-8.287027359	1.0
71	-24.64799881	-15.72700024	26.82600021	-2.388248682	10.16859722	-8.287038803	1.0
72	-24.64799881	-15.72700024	26.82600021	-2.388242722	10.16859818	-8.287035942	1.0
73	-24.64799881	-15.72700024	26.82600021	-2.388242006	10.16859436	-8.287026405	1.0
[RightHandThumb2]
70	-32.29800034	-18.64699936	18.64699936	7.07049799	-37.46694183	0.6013929844	1.0
71	-32.29800034	-18.64699936	18.64699936	7.070499897	-37.46694565	0.6013861895	1.0
72	-32.29800034	-18.64699936	18.64699936	7.07049799	-37.46693039	0.6013964415	1.0
73	-32.29800034	-18.64699936	18.64699936	7.07049942	-37.4669342	0.6013766527	1.0
[RightHandThumb3]
70	-26.52600098	-15.31399918	15.31399918	3.291633129	-34.4118576	-26.1004982	1.0
71	-26.52600098	-15.31399918	15.31399918	3.291637182	-34.41184235	-26.10049438	1.0
72	-26.52600098	-15.31399918	15.31399918	3.291630983	-34.41186142	-26.10049629	1.0
73	-26.52600098	-15.31399918	15.31399918	3.291628838	-34.41186523	-26.10048676	1.0
[RightHandThumb4]
70	-19.54599953	-11.28499985	11.28499985	0	0	0	1.0
71	-19.54599953	-11.28499985	11.28499985	0	0	0	1.0
72	-19.54599953	-11.28499985	11.28499985	0	0	0	1.0
73	-19.54599953	-11.28499985	11.28499985	0	0	0	1.0
[LeftUpLeg]
70	82.07800293	-67.51699829	-15.99599934	-28.10868645	21.90213013	2.436183214	1.0
71	82.07800293	-67.51699829	-15.99599934	-31.84596443	24.82086563	5.100815773	1.0
72	82.07800293	-67.51699829	-15.99599934	-32.68196106	23.39234924	7.82004118	1.0
73	82.07800293	-67.51699829	-15.99599934	-30.77839851	19.81387711	10.42104626	1.0
[LeftLeg]
70	0	-443.7049866	2.845999956	49.3170433	3.522649288	5.392560959	1.0
71	0	-443.7049866	2.845999956	54.39279938	3.744709492	6.136516571	1.0
72	0	-443.7049866	2.845999956	55.12522507	4.752299786	7.339951038	1.0
73	0	-443.7049866	2.845999956	50.71285248	5.326476097	6.999179363	1.0
[LeftFoot]
70	0	-444.2789917	-29.8219986	-22.72573471	4.520181656	-14.84362316	1.0
71	0	-444.2789917	-29.8219986	-22.93141365	-0.1719800681	-13.72896194	1.0
72	0	-444.2789917	-29.8219986	-21.86652756	-3.336057663	-13.96149731	1.0
73	0	-444.2789917	-29.8219986	-19.54870605	-1.820590377	-15.5947876	1.0
[LeftToeBase]
70	0	-87.28699493	107.1060028	-0.0666058436	3.998983175e-06	-7.620420206e-07	1.0
71	0	-87.28699493	107.1060028	-0.561438024	-5.875023817e-06	4.320320386e-06	1.0
72	0	-87.28699493	107.1060028	-1.504476547	4.173145953e-06	-3.304435126e-08	1.0
73	0	-87.28699493	107.1060028	-1.910843492	5.905951639e-06	1.647387649e-06	1.0
[RightUpLeg]
70	-82.07800293	-67.51699829	-15.99599934	-71.55432129	-14.48830223	-1.609515309	1.0
71	-82.07800293	-67.51699829	-15.99599934	-84.0115509	-16.09821892	1.738762498	1.0
72	-82.07800293	-67.51699829	-15.99599934	-93.41460419	-19.74228668	3.789820433	1.0
73	-82.07800293	-67.51699829	-15.99599934	-98.30684662	-24.41860008	4.584220886	1.0
[RightLeg]
70	0	-443.7049866	2.861999989	86.31246948	-0.0462551862	-7.557610512	1.0
71	0	-443.7049866	2.861999989	98.9009552	1.892596126	-7.981054306	1.0
72	0	-443.7049866	2.861999989	108.2816467	3.689768791	-8.150326729	1.0
73	0	-443.7049866	2.861999989	113.2266769	4.28911972	-7.236344814	1.0
[RightFoot]
70	0	-444.2770081	-29.83799934	14.83426285	-1.046704888	5.560767651	1.0
71	0	-444.2770081	-29.83799934	8.350234985	-4.095609665	0.2372717261	1.0
72	0	-444.2770081	-29.83799934	2.045169353	-9.458861351	-3.766094685	1.0
73	0	-444.2770081	-29.83799934	-1.241442084	-13.08097076	-5.011315823	1.0
[RightToeBase]
70	0	-87.28699493	107.1060028	-0.621963799	1.696811705e-05	-1.216670626e-05	1.0
71	0	-87.28699493	107.1060028	3.67980361	9.611940186e-06	-2.695228659e-06	1.0
72	0	-87.28699493	107.1060028	4.712278843	-1.383999916e-06	-7.654754768e-07	1.0
73	0	-87.28699493	107.1060028	3.931330919	-1.89356706e-05	-1.638044182e-06	1.0
[EndOfFile]
